<?xml version="1.0" encoding="utf-8"?>
<!-- Generator: Adobe Illustrator 18.1.0, SVG Export Plug-In . SVG Version: 6.00 Build 0)  -->
<svg version="1.1" id="图层_1" xmlns="http://www.w3.org/2000/svg" xmlns:xlink="http://www.w3.org/1999/xlink" x="0px" y="0px"
	 viewBox="16 -17 48 48" enable-background="new 16 -17 48 48" xml:space="preserve">
<g>
	<path d="M46,11c-5.3,0-16,2.7-16,8v4h32v-4C62,13.7,51.3,11,46,11z"/>
	<path d="M46,7c4.4,0,8-3.6,8-8c0-4.4-3.6-8-8-8s-8,3.6-8,8C38,3.4,41.6,7,46,7z"/>
	<polygon points="28.4,1.4 28.4,-3 23.6,-3 23.6,1.4 26,3.8 	"/>
	<polygon points="34,2.6 29.6,2.6 27.2,5 29.6,7.4 34,7.4 	"/>
	<polygon points="22.4,2.6 18,2.6 18,7.4 22.4,7.4 24.8,5 	"/>
	<polygon points="23.6,8.6 23.6,13 28.4,13 28.4,8.6 26,6.2 	"/>
</g>
</svg>
